<mxfile host="app.diagrams.net" agent="Mozilla/5.0 (Windows NT 10.0; Win64; x64) AppleWebKit/537.36 (KHTML, like Gecko) Chrome/132.0.0.0 Safari/537.36" version="26.0.10">
  <diagram name="Page-1" id="xsemVzgrihfsqJEpymwN">
    <mxGraphModel dx="875" dy="442" grid="1" gridSize="10" guides="1" tooltips="1" connect="1" arrows="1" fold="1" page="1" pageScale="1" pageWidth="850" pageHeight="1100" math="0" shadow="0">
      <root>
        <mxCell id="0" />
        <mxCell id="1" parent="0" />
        <mxCell id="Jrj3SSD42e_Gp-1Ddq5E-1" value="&lt;span style=&quot;color: rgb(0, 0, 0); font-family: Helvetica; font-style: normal; font-variant-ligatures: normal; font-variant-caps: normal; font-weight: 400; letter-spacing: normal; orphans: 2; text-align: center; text-indent: 0px; text-transform: none; widows: 2; word-spacing: 0px; -webkit-text-stroke-width: 0px; white-space: nowrap; background-color: rgb(255, 255, 255); text-decoration-thickness: initial; text-decoration-style: initial; text-decoration-color: initial; float: none; display: inline !important;&quot;&gt;&lt;font style=&quot;font-size: 10px;&quot;&gt;&quot;Gesture timeout, please try again&quot;&lt;/font&gt;&lt;/span&gt;" style="text;whiteSpace=wrap;html=1;" vertex="1" parent="1">
          <mxGeometry x="115" y="640" width="170" height="20" as="geometry" />
        </mxCell>
        <mxCell id="1rDSamccEq4zs1fKq_yu-1" value="gesture: GestureSettings" style="shape=umlLifeline;perimeter=lifelinePerimeter;whiteSpace=wrap;html=1;container=1;dropTarget=0;collapsible=0;recursiveResize=0;outlineConnect=0;portConstraint=eastwest;newEdgeStyle={&quot;curved&quot;:0,&quot;rounded&quot;:0};fillColor=light-dark(#A9C4EB,var(--ge-dark-color, #121212));" parent="1" vertex="1">
          <mxGeometry x="640" y="80" width="100" height="660" as="geometry" />
        </mxCell>
        <mxCell id="1rDSamccEq4zs1fKq_yu-26" style="edgeStyle=orthogonalEdgeStyle;rounded=0;orthogonalLoop=1;jettySize=auto;html=1;curved=0;" parent="1rDSamccEq4zs1fKq_yu-1" target="1rDSamccEq4zs1fKq_yu-1" edge="1">
          <mxGeometry relative="1" as="geometry">
            <mxPoint x="49.911764705882206" y="170" as="sourcePoint" />
            <Array as="points">
              <mxPoint x="70" y="140" />
            </Array>
          </mxGeometry>
        </mxCell>
        <mxCell id="1rDSamccEq4zs1fKq_yu-36" value="" style="html=1;points=[[0,0,0,0,5],[0,1,0,0,-5],[1,0,0,0,5],[1,1,0,0,-5]];perimeter=orthogonalPerimeter;outlineConnect=0;targetShapes=umlLifeline;portConstraint=eastwest;newEdgeStyle={&quot;curved&quot;:0,&quot;rounded&quot;:0};fillColor=light-dark(#A9C4EB,var(--ge-dark-color, #121212));" parent="1rDSamccEq4zs1fKq_yu-1" vertex="1">
          <mxGeometry x="45" y="110" width="10" height="460" as="geometry" />
        </mxCell>
        <mxCell id="Jrj3SSD42e_Gp-1Ddq5E-10" style="edgeStyle=orthogonalEdgeStyle;rounded=0;orthogonalLoop=1;jettySize=auto;html=1;curved=0;" edge="1" parent="1rDSamccEq4zs1fKq_yu-1" source="1rDSamccEq4zs1fKq_yu-36" target="1rDSamccEq4zs1fKq_yu-36">
          <mxGeometry relative="1" as="geometry">
            <Array as="points">
              <mxPoint x="75" y="150" />
              <mxPoint x="80" y="160" />
            </Array>
          </mxGeometry>
        </mxCell>
        <mxCell id="1rDSamccEq4zs1fKq_yu-2" value="serviceManager: UserServiceManager" style="shape=umlLifeline;perimeter=lifelinePerimeter;whiteSpace=wrap;html=1;container=1;dropTarget=0;collapsible=0;recursiveResize=0;outlineConnect=0;portConstraint=eastwest;newEdgeStyle={&quot;curved&quot;:0,&quot;rounded&quot;:0};fillColor=light-dark(#A9C4EB,var(--ge-dark-color, #121212));" parent="1" vertex="1">
          <mxGeometry x="221" y="80" width="119" height="660" as="geometry" />
        </mxCell>
        <mxCell id="1rDSamccEq4zs1fKq_yu-5" value="" style="html=1;points=[[0,0,0,0,5],[0,1,0,0,-5],[1,0,0,0,5],[1,1,0,0,-5]];perimeter=orthogonalPerimeter;outlineConnect=0;targetShapes=umlLifeline;portConstraint=eastwest;newEdgeStyle={&quot;curved&quot;:0,&quot;rounded&quot;:0};fillColor=light-dark(#A9C4EB,var(--ge-dark-color, #121212));" parent="1rDSamccEq4zs1fKq_yu-2" vertex="1">
          <mxGeometry x="54.5" y="70" width="10" height="540" as="geometry" />
        </mxCell>
        <mxCell id="1rDSamccEq4zs1fKq_yu-4" value="service: GestureService" style="shape=umlLifeline;perimeter=lifelinePerimeter;whiteSpace=wrap;html=1;container=1;dropTarget=0;collapsible=0;recursiveResize=0;outlineConnect=0;portConstraint=eastwest;newEdgeStyle={&quot;curved&quot;:0,&quot;rounded&quot;:0};fillColor=light-dark(#A9C4EB,var(--ge-dark-color, #121212));" parent="1" vertex="1">
          <mxGeometry x="455" y="80" width="100" height="660" as="geometry" />
        </mxCell>
        <mxCell id="1rDSamccEq4zs1fKq_yu-6" value="" style="html=1;points=[[0,0,0,0,5],[0,1,0,0,-5],[1,0,0,0,5],[1,1,0,0,-5]];perimeter=orthogonalPerimeter;outlineConnect=0;targetShapes=umlLifeline;portConstraint=eastwest;newEdgeStyle={&quot;curved&quot;:0,&quot;rounded&quot;:0};fillColor=light-dark(#A9C4EB,var(--ge-dark-color, #121212));" parent="1rDSamccEq4zs1fKq_yu-4" vertex="1">
          <mxGeometry x="45" y="90" width="10" height="500" as="geometry" />
        </mxCell>
        <mxCell id="1rDSamccEq4zs1fKq_yu-17" style="edgeStyle=orthogonalEdgeStyle;rounded=0;orthogonalLoop=1;jettySize=auto;html=1;curved=0;" parent="1" source="1rDSamccEq4zs1fKq_yu-6" edge="1" target="1rDSamccEq4zs1fKq_yu-36">
          <mxGeometry relative="1" as="geometry">
            <mxPoint x="690" y="220" as="targetPoint" />
            <Array as="points">
              <mxPoint x="610" y="220" />
              <mxPoint x="610" y="220" />
            </Array>
          </mxGeometry>
        </mxCell>
        <mxCell id="1rDSamccEq4zs1fKq_yu-18" value="return translated Text" style="html=1;verticalAlign=bottom;endArrow=open;dashed=1;endSize=8;curved=0;rounded=0;" parent="1" edge="1" target="1rDSamccEq4zs1fKq_yu-6" source="1rDSamccEq4zs1fKq_yu-36">
          <mxGeometry relative="1" as="geometry">
            <mxPoint x="665" y="270" as="sourcePoint" />
            <mxPoint x="480" y="270" as="targetPoint" />
            <Array as="points">
              <mxPoint x="570" y="270" />
            </Array>
          </mxGeometry>
        </mxCell>
        <mxCell id="1rDSamccEq4zs1fKq_yu-20" value="return translated Text" style="html=1;verticalAlign=bottom;endArrow=open;dashed=1;endSize=8;curved=0;rounded=0;" parent="1" edge="1" target="1rDSamccEq4zs1fKq_yu-5" source="1rDSamccEq4zs1fKq_yu-6">
          <mxGeometry x="0.0041" relative="1" as="geometry">
            <mxPoint x="470" y="290" as="sourcePoint" />
            <mxPoint x="275" y="290" as="targetPoint" />
            <Array as="points">
              <mxPoint x="420" y="300" />
            </Array>
            <mxPoint as="offset" />
          </mxGeometry>
        </mxCell>
        <mxCell id="1rDSamccEq4zs1fKq_yu-42" value="alt" style="shape=umlFrame;whiteSpace=wrap;html=1;pointerEvents=0;fillColor=light-dark(#A9C4EB,var(--ge-dark-color, #121212));" parent="1" vertex="1">
          <mxGeometry x="40" y="250" width="680" height="470" as="geometry" />
        </mxCell>
        <mxCell id="1rDSamccEq4zs1fKq_yu-49" value="" style="shape=umlLifeline;perimeter=lifelinePerimeter;whiteSpace=wrap;html=1;container=1;dropTarget=0;collapsible=0;recursiveResize=0;outlineConnect=0;portConstraint=eastwest;newEdgeStyle={&quot;curved&quot;:0,&quot;rounded&quot;:0};participant=umlActor;fillColor=light-dark(#A9C4EB,var(--ge-dark-color, #121212));" parent="1" vertex="1">
          <mxGeometry x="100" y="90" width="20" height="660" as="geometry" />
        </mxCell>
        <mxCell id="1rDSamccEq4zs1fKq_yu-52" value="" style="html=1;points=[[0,0,0,0,5],[0,1,0,0,-5],[1,0,0,0,5],[1,1,0,0,-5]];perimeter=orthogonalPerimeter;outlineConnect=0;targetShapes=umlLifeline;portConstraint=eastwest;newEdgeStyle={&quot;curved&quot;:0,&quot;rounded&quot;:0};fillColor=light-dark(#A9C4EB,var(--ge-dark-color, #121212));" parent="1rDSamccEq4zs1fKq_yu-49" vertex="1">
          <mxGeometry x="5" y="50" width="10" height="560" as="geometry" />
        </mxCell>
        <mxCell id="1rDSamccEq4zs1fKq_yu-55" value="return translated Text" style="html=1;verticalAlign=bottom;endArrow=open;dashed=1;endSize=8;curved=0;rounded=0;" parent="1" edge="1" source="1rDSamccEq4zs1fKq_yu-5">
          <mxGeometry x="0.0038" relative="1" as="geometry">
            <mxPoint x="266" y="320" as="sourcePoint" />
            <mxPoint x="115" y="320" as="targetPoint" />
            <mxPoint as="offset" />
          </mxGeometry>
        </mxCell>
        <mxCell id="1rDSamccEq4zs1fKq_yu-62" value="" style="html=1;verticalAlign=bottom;endArrow=open;dashed=1;endSize=8;curved=0;rounded=0;" parent="1" edge="1" target="1rDSamccEq4zs1fKq_yu-6" source="1rDSamccEq4zs1fKq_yu-36">
          <mxGeometry x="0.0857" y="-40" relative="1" as="geometry">
            <mxPoint x="660" y="400" as="sourcePoint" />
            <mxPoint x="480" y="400" as="targetPoint" />
            <Array as="points">
              <mxPoint x="600" y="390" />
            </Array>
            <mxPoint as="offset" />
          </mxGeometry>
        </mxCell>
        <mxCell id="1rDSamccEq4zs1fKq_yu-63" value="&quot;Please perform gesture clearly&quot;" style="html=1;verticalAlign=bottom;endArrow=open;dashed=1;endSize=8;curved=0;rounded=0;" parent="1" edge="1" target="1rDSamccEq4zs1fKq_yu-5">
          <mxGeometry relative="1" as="geometry">
            <mxPoint x="470" y="410" as="sourcePoint" />
            <mxPoint x="276" y="410" as="targetPoint" />
          </mxGeometry>
        </mxCell>
        <mxCell id="1rDSamccEq4zs1fKq_yu-75" value="" style="html=1;verticalAlign=bottom;endArrow=open;dashed=1;endSize=8;curved=0;rounded=0;" parent="1" edge="1" target="1rDSamccEq4zs1fKq_yu-6" source="1rDSamccEq4zs1fKq_yu-36">
          <mxGeometry x="-0.0286" y="-20" relative="1" as="geometry">
            <mxPoint x="665" y="520" as="sourcePoint" />
            <mxPoint x="480" y="520" as="targetPoint" />
            <Array as="points">
              <mxPoint x="600" y="510" />
            </Array>
            <mxPoint as="offset" />
          </mxGeometry>
        </mxCell>
        <mxCell id="1rDSamccEq4zs1fKq_yu-76" value="&quot;Gesture not recognized&quot;" style="html=1;verticalAlign=bottom;endArrow=open;dashed=1;endSize=8;curved=0;rounded=0;" parent="1" edge="1" target="1rDSamccEq4zs1fKq_yu-5" source="1rDSamccEq4zs1fKq_yu-6">
          <mxGeometry x="-0.0676" y="-10" relative="1" as="geometry">
            <mxPoint x="470" y="540" as="sourcePoint" />
            <mxPoint x="276" y="540" as="targetPoint" />
            <Array as="points">
              <mxPoint x="400" y="530" />
            </Array>
            <mxPoint as="offset" />
          </mxGeometry>
        </mxCell>
        <mxCell id="1rDSamccEq4zs1fKq_yu-77" value="&quot;Gesture not recognized&quot;" style="html=1;verticalAlign=bottom;endArrow=open;dashed=1;endSize=8;curved=0;rounded=0;" parent="1" target="1rDSamccEq4zs1fKq_yu-52" edge="1" source="1rDSamccEq4zs1fKq_yu-5">
          <mxGeometry relative="1" as="geometry">
            <mxPoint x="266" y="560" as="sourcePoint" />
            <mxPoint x="186" y="560" as="targetPoint" />
            <Array as="points">
              <mxPoint x="200" y="550" />
            </Array>
          </mxGeometry>
        </mxCell>
        <mxCell id="1rDSamccEq4zs1fKq_yu-83" value="&quot;Gesture Timeout Error&quot;" style="html=1;verticalAlign=bottom;endArrow=open;dashed=1;endSize=8;curved=0;rounded=0;" parent="1" edge="1" target="1rDSamccEq4zs1fKq_yu-6" source="1rDSamccEq4zs1fKq_yu-36">
          <mxGeometry relative="1" as="geometry">
            <mxPoint x="665" y="640" as="sourcePoint" />
            <mxPoint x="480" y="640" as="targetPoint" />
            <Array as="points">
              <mxPoint x="620" y="630" />
            </Array>
          </mxGeometry>
        </mxCell>
        <mxCell id="1rDSamccEq4zs1fKq_yu-84" value="" style="html=1;verticalAlign=bottom;endArrow=open;dashed=1;endSize=8;curved=0;rounded=0;" parent="1" edge="1" target="1rDSamccEq4zs1fKq_yu-5" source="1rDSamccEq4zs1fKq_yu-6">
          <mxGeometry x="-0.458" y="-10" relative="1" as="geometry">
            <mxPoint x="470" y="660" as="sourcePoint" />
            <mxPoint x="276" y="660" as="targetPoint" />
            <Array as="points">
              <mxPoint x="400" y="650" />
            </Array>
            <mxPoint as="offset" />
          </mxGeometry>
        </mxCell>
        <mxCell id="1rDSamccEq4zs1fKq_yu-86" value="&lt;font style=&quot;font-size: 10px;&quot;&gt;&quot;Please perform gesture clearly&quot;&lt;/font&gt;" style="html=1;verticalAlign=bottom;endArrow=open;dashed=1;endSize=8;curved=0;rounded=0;" parent="1" target="1rDSamccEq4zs1fKq_yu-52" edge="1">
          <mxGeometry relative="1" as="geometry">
            <mxPoint x="266" y="440" as="sourcePoint" />
            <mxPoint x="186" y="440" as="targetPoint" />
          </mxGeometry>
        </mxCell>
        <mxCell id="1rDSamccEq4zs1fKq_yu-92" value="" style="endArrow=none;dashed=1;html=1;rounded=0;exitX=0.002;exitY=0.233;exitDx=0;exitDy=0;exitPerimeter=0;entryX=1.001;entryY=0.231;entryDx=0;entryDy=0;entryPerimeter=0;" parent="1" edge="1" target="1rDSamccEq4zs1fKq_yu-42" source="1rDSamccEq4zs1fKq_yu-42">
          <mxGeometry width="50" height="50" relative="1" as="geometry">
            <mxPoint x="99.40500000000003" y="362.81999999999994" as="sourcePoint" />
            <mxPoint x="710" y="357" as="targetPoint" />
          </mxGeometry>
        </mxCell>
        <mxCell id="1rDSamccEq4zs1fKq_yu-93" value="" style="endArrow=none;dashed=1;html=1;rounded=0;entryX=1.003;entryY=0.742;entryDx=0;entryDy=0;entryPerimeter=0;exitX=0;exitY=0.742;exitDx=0;exitDy=0;exitPerimeter=0;" parent="1" edge="1" target="1rDSamccEq4zs1fKq_yu-42" source="1rDSamccEq4zs1fKq_yu-42">
          <mxGeometry width="50" height="50" relative="1" as="geometry">
            <mxPoint x="100.00500000000002" y="602.8199999999999" as="sourcePoint" />
            <mxPoint x="696.195" y="600" as="targetPoint" />
          </mxGeometry>
        </mxCell>
        <mxCell id="1rDSamccEq4zs1fKq_yu-94" value="" style="endArrow=none;dashed=1;html=1;rounded=0;entryX=1.002;entryY=0.485;entryDx=0;entryDy=0;entryPerimeter=0;exitX=-0.001;exitY=0.487;exitDx=0;exitDy=0;exitPerimeter=0;" parent="1" edge="1" target="1rDSamccEq4zs1fKq_yu-42" source="1rDSamccEq4zs1fKq_yu-42">
          <mxGeometry width="50" height="50" relative="1" as="geometry">
            <mxPoint x="98.80500000000004" y="482.81999999999994" as="sourcePoint" />
            <mxPoint x="694.995" y="480" as="targetPoint" />
          </mxGeometry>
        </mxCell>
        <mxCell id="1rDSamccEq4zs1fKq_yu-95" value="&lt;font style=&quot;font-size: 9px;&quot;&gt;&lt;b&gt;[if gesture&amp;nbsp;&lt;/b&gt;&lt;/font&gt;&lt;div&gt;&lt;font style=&quot;font-size: 9px;&quot;&gt;&lt;b&gt;recognized successfully]&lt;/b&gt;&lt;/font&gt;&lt;/div&gt;" style="text;html=1;align=center;verticalAlign=middle;resizable=0;points=[];autosize=1;strokeColor=none;fillColor=none;" parent="1" vertex="1">
          <mxGeometry x="110" y="250" width="130" height="40" as="geometry" />
        </mxCell>
        <mxCell id="1rDSamccEq4zs1fKq_yu-96" value="&lt;font style=&quot;font-size: 10px;&quot;&gt;&lt;b style=&quot;&quot;&gt;[else gesture not clear]&lt;/b&gt;&lt;/font&gt;" style="text;html=1;align=center;verticalAlign=middle;resizable=0;points=[];autosize=1;strokeColor=none;fillColor=none;" parent="1" vertex="1">
          <mxGeometry x="120" y="370" width="130" height="30" as="geometry" />
        </mxCell>
        <mxCell id="1rDSamccEq4zs1fKq_yu-97" value="&lt;font style=&quot;font-size: 10px;&quot;&gt;&lt;b style=&quot;&quot;&gt;[else gesture not supported]&lt;/b&gt;&lt;/font&gt;" style="text;html=1;align=center;verticalAlign=middle;resizable=0;points=[];autosize=1;strokeColor=none;fillColor=none;" parent="1" vertex="1">
          <mxGeometry x="100" y="478" width="160" height="30" as="geometry" />
        </mxCell>
        <mxCell id="1rDSamccEq4zs1fKq_yu-99" value="&lt;font style=&quot;font-size: 10px;&quot;&gt;&lt;b style=&quot;&quot;&gt;[else gesture timeout]&lt;/b&gt;&lt;/font&gt;" style="text;html=1;align=center;verticalAlign=middle;resizable=0;points=[];autosize=1;strokeColor=none;fillColor=none;" parent="1" vertex="1">
          <mxGeometry x="110" y="600" width="130" height="30" as="geometry" />
        </mxCell>
        <mxCell id="Jrj3SSD42e_Gp-1Ddq5E-2" style="edgeStyle=orthogonalEdgeStyle;rounded=0;orthogonalLoop=1;jettySize=auto;html=1;curved=0;dashed=1;endArrow=open;endFill=0;" edge="1" parent="1" source="1rDSamccEq4zs1fKq_yu-5" target="1rDSamccEq4zs1fKq_yu-52">
          <mxGeometry relative="1" as="geometry">
            <Array as="points">
              <mxPoint x="210" y="670" />
              <mxPoint x="210" y="670" />
            </Array>
          </mxGeometry>
        </mxCell>
        <mxCell id="Jrj3SSD42e_Gp-1Ddq5E-3" style="edgeStyle=orthogonalEdgeStyle;rounded=0;orthogonalLoop=1;jettySize=auto;html=1;curved=0;" edge="1" parent="1" source="1rDSamccEq4zs1fKq_yu-52" target="1rDSamccEq4zs1fKq_yu-5">
          <mxGeometry relative="1" as="geometry">
            <Array as="points">
              <mxPoint x="230" y="170" />
              <mxPoint x="230" y="170" />
            </Array>
          </mxGeometry>
        </mxCell>
        <mxCell id="Jrj3SSD42e_Gp-1Ddq5E-4" value="&lt;span style=&quot;color: rgb(0, 0, 0); font-family: Helvetica; font-style: normal; font-variant-ligatures: normal; font-variant-caps: normal; font-weight: 400; letter-spacing: normal; orphans: 2; text-align: left; text-indent: 0px; text-transform: none; widows: 2; word-spacing: 0px; -webkit-text-stroke-width: 0px; white-space: normal; background-color: rgb(251, 251, 251); text-decoration-thickness: initial; text-decoration-style: initial; text-decoration-color: initial; float: none; display: inline !important;&quot;&gt;&lt;font style=&quot;font-size: 10px;&quot;&gt;recognizeGesture(gesture: bytes)&lt;/font&gt;&lt;/span&gt;" style="text;whiteSpace=wrap;html=1;" vertex="1" parent="1">
          <mxGeometry x="125" y="140" width="160" height="20" as="geometry" />
        </mxCell>
        <mxCell id="Jrj3SSD42e_Gp-1Ddq5E-5" value="&lt;span style=&quot;color: rgb(0, 0, 0); font-family: Helvetica; font-style: normal; font-variant-ligatures: normal; font-variant-caps: normal; font-weight: 400; letter-spacing: normal; orphans: 2; text-align: left; text-indent: 0px; text-transform: none; widows: 2; word-spacing: 0px; -webkit-text-stroke-width: 0px; white-space: normal; background-color: rgb(251, 251, 251); text-decoration-thickness: initial; text-decoration-style: initial; text-decoration-color: initial; float: none; display: inline !important;&quot;&gt;&lt;font style=&quot;font-size: 10px;&quot;&gt;processGestureRecognition(gesture: bytes)&lt;/font&gt;&lt;/span&gt;" style="text;whiteSpace=wrap;html=1;" vertex="1" parent="1">
          <mxGeometry x="295" y="160" width="260" height="40" as="geometry" />
        </mxCell>
        <mxCell id="Jrj3SSD42e_Gp-1Ddq5E-6" style="edgeStyle=orthogonalEdgeStyle;rounded=0;orthogonalLoop=1;jettySize=auto;html=1;curved=0;" edge="1" parent="1" source="1rDSamccEq4zs1fKq_yu-5" target="1rDSamccEq4zs1fKq_yu-6">
          <mxGeometry relative="1" as="geometry">
            <Array as="points">
              <mxPoint x="380" y="190" />
              <mxPoint x="380" y="190" />
            </Array>
          </mxGeometry>
        </mxCell>
        <mxCell id="Jrj3SSD42e_Gp-1Ddq5E-7" value="&lt;span style=&quot;color: rgb(0, 0, 0); font-family: Helvetica; font-style: normal; font-variant-ligatures: normal; font-variant-caps: normal; font-weight: 400; letter-spacing: normal; orphans: 2; text-align: left; text-indent: 0px; text-transform: none; widows: 2; word-spacing: 0px; -webkit-text-stroke-width: 0px; white-space: normal; background-color: rgb(251, 251, 251); text-decoration-thickness: initial; text-decoration-style: initial; text-decoration-color: initial; float: none; display: inline !important;&quot;&gt;&lt;font style=&quot;font-size: 10px;&quot;&gt;processGesture(gesture: bytes)&lt;/font&gt;&lt;/span&gt;" style="text;whiteSpace=wrap;html=1;" vertex="1" parent="1">
          <mxGeometry x="520" y="190" width="150" height="30" as="geometry" />
        </mxCell>
        <mxCell id="Jrj3SSD42e_Gp-1Ddq5E-9" value="&lt;span style=&quot;color: rgb(0, 0, 0); font-family: Helvetica; font-style: normal; font-variant-ligatures: normal; font-variant-caps: normal; font-weight: 400; letter-spacing: normal; orphans: 2; text-align: left; text-indent: 0px; text-transform: none; widows: 2; word-spacing: 0px; -webkit-text-stroke-width: 0px; white-space: normal; background-color: rgb(251, 251, 251); text-decoration-thickness: initial; text-decoration-style: initial; text-decoration-color: initial; float: none; display: inline !important;&quot;&gt;&lt;font style=&quot;font-size: 10px;&quot;&gt;recognizeGesture(gesture: bytes)&lt;/font&gt;&lt;/span&gt;" style="text;whiteSpace=wrap;html=1;" vertex="1" parent="1">
          <mxGeometry x="700" y="200" width="160" height="20" as="geometry" />
        </mxCell>
        <mxCell id="Jrj3SSD42e_Gp-1Ddq5E-11" value="&lt;span style=&quot;color: rgb(0, 0, 0); font-family: Helvetica; font-size: 11px; font-style: normal; font-variant-ligatures: normal; font-variant-caps: normal; font-weight: 400; letter-spacing: normal; orphans: 2; text-align: center; text-indent: 0px; text-transform: none; widows: 2; word-spacing: 0px; -webkit-text-stroke-width: 0px; white-space: nowrap; background-color: rgb(255, 255, 255); text-decoration-thickness: initial; text-decoration-style: initial; text-decoration-color: initial; float: none; display: inline !important;&quot;&gt;&quot;Gesture Not Clear Error&quot;&lt;/span&gt;" style="text;whiteSpace=wrap;html=1;" vertex="1" parent="1">
          <mxGeometry x="535" y="360" width="120" height="30" as="geometry" />
        </mxCell>
        <mxCell id="Jrj3SSD42e_Gp-1Ddq5E-12" value="&lt;span style=&quot;color: rgb(0, 0, 0); font-family: Helvetica; font-size: 11px; font-style: normal; font-variant-ligatures: normal; font-variant-caps: normal; font-weight: 400; letter-spacing: normal; orphans: 2; text-align: center; text-indent: 0px; text-transform: none; widows: 2; word-spacing: 0px; -webkit-text-stroke-width: 0px; white-space: nowrap; background-color: rgb(255, 255, 255); text-decoration-thickness: initial; text-decoration-style: initial; text-decoration-color: initial; display: inline !important; float: none;&quot;&gt;&quot;Unsupported Gesture Error&quot;&lt;/span&gt;" style="text;whiteSpace=wrap;html=1;" vertex="1" parent="1">
          <mxGeometry x="520" y="488" width="140" height="20" as="geometry" />
        </mxCell>
        <mxCell id="Jrj3SSD42e_Gp-1Ddq5E-14" value="&lt;span style=&quot;color: rgb(0, 0, 0); font-family: Helvetica; font-size: 11px; font-style: normal; font-variant-ligatures: normal; font-variant-caps: normal; font-weight: 400; letter-spacing: normal; orphans: 2; text-align: center; text-indent: 0px; text-transform: none; widows: 2; word-spacing: 0px; -webkit-text-stroke-width: 0px; white-space: nowrap; background-color: rgb(255, 255, 255); text-decoration-thickness: initial; text-decoration-style: initial; text-decoration-color: initial; display: inline !important; float: none;&quot;&gt;&quot;Gesture timeout, please try again&quot;&lt;/span&gt;" style="text;whiteSpace=wrap;html=1;" vertex="1" parent="1">
          <mxGeometry x="310" y="620" width="200" height="40" as="geometry" />
        </mxCell>
      </root>
    </mxGraphModel>
  </diagram>
</mxfile>
